<svg xmlns="http://www.w3.org/2000/svg" xmlns:xlink="http://www.w3.org/1999/xlink" width="500" zoomAndPan="magnify" viewBox="0 0 375 374.999991" height="500" preserveAspectRatio="xMidYMid meet" version="1.2"><defs><clipPath id="00f4a6ad55"><path d="M 193 346 L 205 346 L 205 348.632812 L 193 348.632812 Z M 193 346 "/></clipPath><clipPath id="96fa27b22b"><path d="M 222 347 L 230 347 L 230 348.632812 L 222 348.632812 Z M 222 347 "/></clipPath><clipPath id="57ab0630e1"><path d="M 134 26.132812 L 143 26.132812 L 143 31 L 134 31 Z M 134 26.132812 "/></clipPath></defs><g id="b5ef4defdd"><path style=" stroke:none;fill-rule:nonzero;fill:#000000;fill-opacity:1;" d="M 101.324219 302.207031 C 98.339844 299.140625 93.125 294.089844 90.980469 292.734375 C 90.863281 292.675781 90.6875 292.628906 90.558594 292.628906 C 90.59375 294.078125 104.152344 307.210938 105.667969 307.261719 C 105.628906 306.734375 103.285156 304.222656 101.324219 302.207031 "/><path style=" stroke:none;fill-rule:nonzero;fill:#ffffff;fill-opacity:1;" d="M 118.929688 314.925781 C 115.796875 312.25 110.117188 307.871094 107.3125 306.785156 C 107.105469 306.730469 106.792969 306.648438 106.6875 306.746094 C 106.144531 307.234375 109.707031 310.589844 113.375 313.414062 C 118.074219 317.035156 122.359375 319.667969 123.128906 319.410156 C 123.382812 318.839844 120.609375 316.359375 118.929688 314.925781 "/><path style=" stroke:none;fill-rule:nonzero;fill:#ffffff;fill-opacity:1;" d="M 60.332031 246.492188 C 60.261719 246.425781 60.136719 246.351562 60.042969 246.351562 C 60.015625 248.25 69.074219 265.570312 70.136719 265.652344 C 70.148438 264.882812 68.339844 261.09375 67.261719 258.902344 C 65.375 255.074219 61.824219 248.320312 60.332031 246.492188 "/><path style=" stroke:none;fill-rule:nonzero;fill:#ffffff;fill-opacity:1;" d="M 71.601562 265.078125 C 71.414062 264.988281 71.179688 264.878906 71.0625 264.996094 C 69.886719 266.195312 80.519531 281.910156 83.039062 282.695312 C 84.011719 283 82.953125 280.390625 80.457031 276.351562 C 78.128906 272.574219 73.839844 266.582031 71.601562 265.078125 "/><path style=" stroke:none;fill-rule:nonzero;fill:#ffffff;fill-opacity:1;" d="M 96.359375 291.929688 C 93.785156 288.492188 88.820312 283.105469 85.84375 281.882812 C 85.597656 281.820312 85.257812 281.734375 85.066406 281.867188 C 83.015625 283.285156 95 297.308594 98.707031 297.832031 C 100.070312 298.023438 99.105469 295.59375 96.359375 291.929688 "/><path style=" stroke:none;fill-rule:nonzero;fill:#ffffff;fill-opacity:1;" d="M 52.34375 226.292969 C 52.460938 226.667969 52.644531 227.214844 52.871094 227.882812 C 52.691406 227.34375 52.507812 226.796875 52.339844 226.28125 L 52.34375 226.292969 "/><path style=" stroke:none;fill-rule:nonzero;fill:#ffffff;fill-opacity:1;" d="M 65.53125 252.890625 C 66.957031 253.695312 66.707031 250.496094 64.953125 245.441406 C 63.4375 241.082031 60.289062 234.214844 58.03125 232.605469 C 57.894531 232.546875 57.703125 232.457031 57.5625 232.484375 C 55.207031 232.933594 62.285156 251.050781 65.53125 252.890625 "/><path style=" stroke:none;fill-rule:nonzero;fill:#ffffff;fill-opacity:1;" d="M 78.765625 270.671875 C 80.714844 271.316406 80.574219 268.25 78.441406 263.546875 C 76.597656 259.480469 72.601562 253.144531 69.488281 251.800781 C 69.222656 251.742188 68.855469 251.65625 68.582031 251.824219 C 65.859375 253.535156 74.332031 269.207031 78.765625 270.671875 "/><path style=" stroke:none;fill-rule:nonzero;fill:#ffffff;fill-opacity:1;" d="M 94.3125 286.496094 C 97.148438 287.429688 97.367188 284.445312 94.800781 279.847656 C 92.375 275.5 87.589844 270.222656 84.085938 269.28125 C 83.746094 269.242188 83.28125 269.1875 82.925781 269.378906 C 79.574219 271.148438 88.515625 284.585938 94.3125 286.496094 "/><path style=" stroke:none;fill-rule:nonzero;fill:#ffffff;fill-opacity:1;" d="M 50.058594 212.011719 C 49.984375 211.945312 49.871094 211.863281 49.777344 211.835938 C 48.355469 212.722656 53.929688 233.039062 55.742188 233.578125 C 56.457031 233.128906 55.140625 227.410156 54.71875 225.671875 C 53.6875 221.398438 51.507812 213.914062 50.058594 212.011719 "/><path style=" stroke:none;fill-rule:nonzero;fill:#ffffff;fill-opacity:1;" d="M 64.316406 238.585938 C 66.609375 239.855469 67.445312 236.195312 66.175781 230.429688 C 65.167969 225.84375 62.371094 218.757812 59.300781 217.367188 C 59.097656 217.324219 58.808594 217.265625 58.605469 217.3125 C 54.660156 218.175781 59.410156 235.871094 64.316406 238.585938 "/><path style=" stroke:none;fill-rule:nonzero;fill:#ffffff;fill-opacity:1;" d="M 77.226562 256.804688 C 80.503906 258.46875 81.792969 254.871094 79.988281 249.105469 C 78.617188 244.738281 74.902344 238.078125 70.917969 236.949219 C 70.652344 236.921875 70.285156 236.886719 70.023438 236.949219 C 65.351562 238.054688 71.007812 253.644531 77.226562 256.804688 "/><path style=" stroke:none;fill-rule:nonzero;fill:#ffffff;fill-opacity:1;" d="M 92.855469 273.238281 C 97.167969 275.226562 98.976562 271.78125 96.644531 266.011719 C 95 261.925781 90.570312 255.8125 85.878906 255.007812 C 85.453125 254.996094 84.867188 254.980469 84.34375 255.226562 C 79.972656 257.296875 86.015625 270.089844 92.855469 273.238281 "/><path style=" stroke:none;fill-rule:nonzero;fill:#ffffff;fill-opacity:1;" d="M 54.261719 218.585938 C 55.886719 220.03125 56.625 216.425781 55.914062 210.542969 C 55.355469 205.949219 53.605469 198.757812 51.457031 197.15625 C 51.3125 197.097656 51.105469 197.015625 50.953125 197.042969 C 48.03125 197.566406 50.785156 215.484375 54.261719 218.585938 "/><path style=" stroke:none;fill-rule:nonzero;fill:#ffffff;fill-opacity:1;" d="M 70.972656 214.214844 C 70.46875 209.589844 68.023438 202.574219 64.167969 201.441406 C 63.894531 201.414062 63.515625 201.386719 63.25 201.449219 C 58.484375 202.5625 60.488281 218.226562 65.929688 222.398438 C 69.257812 224.953125 71.710938 220.976562 70.972656 214.214844 "/><path style=" stroke:none;fill-rule:nonzero;fill:#ffffff;fill-opacity:1;" d="M 84.832031 232.953125 C 83.910156 228.335938 80.511719 221.453125 75.84375 220.605469 C 75.511719 220.597656 75.054688 220.597656 74.730469 220.679688 C 69.3125 222.074219 72.167969 236.496094 78.753906 240.984375 C 83.238281 244.046875 86.25 240.066406 84.832031 232.953125 "/><path style=" stroke:none;fill-rule:nonzero;fill:#ffffff;fill-opacity:1;" d="M 101.453125 250.375 C 100.222656 245.972656 96.097656 239.523438 90.792969 238.976562 C 90.414062 238.992188 89.90625 239.015625 89.542969 239.121094 C 83.601562 240.816406 87.496094 254.488281 95.027344 258.367188 C 100.136719 261 103.320312 257.042969 101.453125 250.375 "/><path style=" stroke:none;fill-rule:nonzero;fill:#ffffff;fill-opacity:1;" d="M 56.519531 202.960938 C 58.820312 204.941406 60.757812 201.136719 60.664062 194.820312 C 60.597656 190.222656 59.203125 183.140625 56.320312 181.785156 C 56.109375 181.742188 55.816406 181.691406 55.609375 181.734375 C 51.496094 182.589844 52.210938 199.253906 56.519531 202.960938 "/><path style=" stroke:none;fill-rule:nonzero;fill:#ffffff;fill-opacity:1;" d="M 78.929688 197.289062 C 78.835938 192.648438 76.710938 185.738281 72.277344 184.90625 C 72.109375 184.90625 71.882812 184.886719 71.714844 184.898438 C 65.824219 185.320312 65.164062 199.453125 70.773438 205.066406 C 74.8125 209.105469 79.078125 205.035156 78.929688 197.289062 "/><path style=" stroke:none;fill-rule:nonzero;fill:#ffffff;fill-opacity:1;" d="M 92.472656 215.480469 C 91.976562 210.820312 88.949219 204.007812 83.777344 203.449219 C 83.585938 203.457031 83.328125 203.453125 83.136719 203.476562 C 76.472656 204.273438 77.003906 218.519531 83.894531 223.800781 C 88.8125 227.566406 93.300781 223.214844 92.472656 215.480469 "/><path style=" stroke:none;fill-rule:nonzero;fill:#ffffff;fill-opacity:1;" d="M 108.878906 232.992188 C 108.019531 228.339844 104.203125 221.664062 98.40625 221.386719 C 98.191406 221.40625 97.902344 221.414062 97.691406 221.449219 C 90.84375 222.53125 91.84375 235.757812 99.171875 241.105469 C 105.105469 245.433594 110.367188 241.035156 108.878906 232.992188 "/><path style=" stroke:none;fill-rule:nonzero;fill:#ffffff;fill-opacity:1;" d="M 61.632812 186.3125 C 64.558594 189.695312 68.097656 185.78125 68.644531 178.558594 C 68.992188 173.984375 67.882812 167.054688 64.324219 165.972656 C 64.1875 165.960938 64.007812 165.929688 63.871094 165.933594 C 58.929688 166.015625 57.257812 181.253906 61.632812 186.3125 "/><path style=" stroke:none;fill-rule:nonzero;fill:#ffffff;fill-opacity:1;" d="M 78.832031 187.847656 C 82.996094 192.5625 88.601562 188.308594 89.003906 180.132812 C 89.230469 175.511719 87.386719 168.753906 82.582031 168.207031 C 75.382812 168.515625 73.878906 182.238281 78.832031 187.847656 "/><path style=" stroke:none;fill-rule:nonzero;fill:#ffffff;fill-opacity:1;" d="M 102.257812 197.699219 C 102.082031 193.027344 99.347656 186.320312 93.808594 186.03125 C 85.71875 186.734375 85.382812 200.632812 91.53125 206.011719 C 96.648438 210.488281 102.5625 205.90625 102.257812 197.699219 "/><path style=" stroke:none;fill-rule:nonzero;fill:#ffffff;fill-opacity:1;" d="M 106.394531 222.9375 C 112.523438 228.210938 119.335938 223.523438 118.34375 214.710938 C 117.816406 210.019531 114.300781 203.40625 108.136719 203.382812 C 99.746094 204.417969 99.800781 217.261719 106.394531 222.9375 "/><path style=" stroke:none;fill-rule:nonzero;fill:#ffffff;fill-opacity:1;" d="M 78.984375 162.167969 C 79.644531 157.636719 78.773438 150.898438 74.773438 150.109375 C 68.398438 150.027344 65.785156 164.730469 69.894531 169.839844 C 73.109375 173.839844 77.867188 169.824219 78.984375 162.167969 "/><path style=" stroke:none;fill-rule:nonzero;fill:#ffffff;fill-opacity:1;" d="M 130.957031 301.039062 C 135.980469 302.3125 137.972656 299.144531 135.222656 294.257812 C 133.273438 290.800781 128.050781 285.847656 122.535156 285.652344 C 121.78125 285.707031 121.007812 285.765625 120.25 286.292969 C 115.984375 289.261719 123.089844 299.050781 130.957031 301.039062 "/><path style=" stroke:none;fill-rule:nonzero;fill:#ffffff;fill-opacity:1;" d="M 140.132812 279.960938 C 138.570312 276.144531 133.609375 270.789062 127.46875 270.828125 C 126.898438 270.894531 126.121094 270.984375 125.390625 271.332031 C 119.785156 273.980469 124.199219 284.167969 132.335938 287.363281 C 138.601562 289.820312 142.609375 286.019531 140.132812 279.960938 "/><path style=" stroke:none;fill-rule:nonzero;fill:#ffffff;fill-opacity:1;" d="M 147.550781 263.796875 C 146.324219 259.640625 141.59375 253.90625 134.925781 254.183594 C 134.679688 254.222656 134.351562 254.257812 134.109375 254.308594 C 126.769531 255.859375 128.121094 266.746094 136.234375 271.441406 C 143.425781 275.597656 149.773438 271.3125 147.550781 263.796875 "/><path style=" stroke:none;fill-rule:nonzero;fill:#ffffff;fill-opacity:1;" d="M 144.464844 235.808594 C 144.203125 235.855469 143.851562 235.902344 143.59375 235.964844 C 135.667969 237.878906 136.113281 249.6875 144.300781 254.546875 C 151.503906 258.820312 158.765625 253.863281 157.039062 245.851562 C 156.074219 241.375 151.535156 235.300781 144.464844 235.808594 "/><path style=" stroke:none;fill-rule:nonzero;fill:#ffffff;fill-opacity:1;" d="M 132.167969 312.558594 C 135.609375 313.007812 136.035156 310.40625 133.132812 306.636719 C 130.757812 303.550781 125.253906 299.015625 120.445312 298.597656 C 119.800781 298.613281 119.136719 298.632812 118.585938 299.054688 C 115.183594 301.683594 125.210938 311.652344 132.167969 312.558594 "/><path style=" stroke:none;fill-rule:nonzero;fill:#ffffff;fill-opacity:1;" d="M 135.925781 322.003906 C 137.847656 321.960938 137.105469 319.984375 134.082031 317.089844 C 131.441406 314.566406 125.671875 310.316406 121.425781 309.671875 C 120.894531 309.648438 120.351562 309.621094 120.011719 309.945312 C 117.773438 312.09375 131.011719 322.125 135.925781 322.003906 "/><path style=" stroke:none;fill-rule:nonzero;fill:#ffffff;fill-opacity:1;" d="M 112.707031 273.996094 C 119.1875 277.179688 123.410156 272.980469 120.925781 265.828125 C 119.367188 261.351562 114.335938 254.925781 108.023438 254.667969 C 107.574219 254.703125 106.972656 254.761719 106.542969 254.890625 C 99.890625 256.882812 104.039062 269.738281 112.707031 273.996094 "/><path style=" stroke:none;fill-rule:nonzero;fill:#ffffff;fill-opacity:1;" d="M 111.542969 288.558594 C 116.640625 290.296875 118.753906 286.648438 115.976562 280.902344 C 113.988281 276.792969 108.648438 270.765625 103.007812 270.242188 C 102.492188 270.257812 101.789062 270.277344 101.164062 270.570312 C 95.804688 273.070312 103.078125 285.679688 111.542969 288.558594 "/><path style=" stroke:none;fill-rule:nonzero;fill:#ffffff;fill-opacity:1;" d="M 54.683594 175.269531 C 55.097656 170.355469 54.722656 162.695312 52.589844 161.054688 C 52.429688 160.992188 52.199219 160.917969 52.027344 160.949219 C 48.417969 161.570312 47.390625 180.75 50.789062 184.003906 C 52.398438 185.542969 54.144531 181.625 54.683594 175.269531 "/><path style=" stroke:none;fill-rule:nonzero;fill:#ffffff;fill-opacity:1;" d="M 47.519531 175.757812 C 47.429688 175.683594 47.289062 175.570312 47.175781 175.582031 C 45.003906 175.820312 45.988281 196.6875 48.277344 199.082031 C 49.25 200.097656 49.890625 196.378906 49.769531 190.4375 C 49.667969 185.484375 48.902344 177.65625 47.519531 175.757812 "/><path style=" stroke:none;fill-rule:nonzero;fill:#ffffff;fill-opacity:1;" d="M 127.648438 248.929688 C 126.558594 244.484375 122.175781 238.230469 115.855469 238.234375 C 115.398438 238.292969 114.785156 238.375 114.347656 238.519531 C 107.675781 240.71875 109.6875 252.527344 117.507812 257.097656 C 124.007812 260.898438 129.503906 256.46875 127.648438 248.929688 "/><path style=" stroke:none;fill-rule:nonzero;fill:#ffffff;fill-opacity:1;" d="M 124.761719 239 C 131.570312 243.847656 138.652344 238.917969 137.179688 230.355469 C 136.375 225.675781 132.234375 219.195312 125.535156 219.445312 C 125.289062 219.484375 124.953125 219.519531 124.707031 219.574219 C 117.113281 221.238281 117.148438 233.582031 124.761719 239 "/><path style=" stroke:none;fill-rule:nonzero;fill:#ffffff;fill-opacity:1;" d="M 112.515625 300.367188 C 115.78125 301.054688 116.144531 298.273438 113.34375 294.035156 C 111.074219 290.601562 105.855469 285.441406 101.371094 284.71875 C 100.777344 284.699219 100.160156 284.675781 99.652344 285.09375 C 96.59375 287.621094 106.210938 299.035156 112.515625 300.367188 "/><path style=" stroke:none;fill-rule:nonzero;fill:#ffffff;fill-opacity:1;" d="M 116.46875 310.816406 C 118.171875 310.882812 117.339844 308.648438 114.441406 305.375 C 111.710938 302.292969 106.226562 297.535156 102.585938 296.609375 C 102.105469 296.546875 101.652344 296.488281 101.394531 296.816406 C 99.660156 299.003906 112.199219 310.644531 116.46875 310.816406 "/><path style=" stroke:none;fill-rule:nonzero;fill:#ffffff;fill-opacity:1;" d="M 47.046875 156.0625 C 47.027344 156.015625 47.003906 155.957031 46.984375 155.914062 C 46.9375 155.910156 46.878906 155.90625 46.835938 155.902344 C 45.703125 157.808594 44.613281 175.210938 45.492188 177.304688 C 45.539062 177.304688 45.597656 177.308594 45.640625 177.308594 C 46.136719 176.402344 46.550781 172.066406 46.757812 169.5625 C 47.097656 165.359375 47.480469 157.972656 47.046875 156.0625 "/><path style=" stroke:none;fill-rule:nonzero;fill:#ffffff;fill-opacity:1;" d="M 51.625 155.15625 C 52.460938 150.726562 53.160156 143.765625 52.09375 142.152344 C 52.011719 142.085938 51.875 141.996094 51.769531 142.007812 C 49.429688 142.269531 46.4375 160.871094 48.398438 162.960938 C 49.230469 163.847656 50.617188 160.492188 51.625 155.15625 "/><path style=" stroke:none;fill-rule:nonzero;fill:#ffffff;fill-opacity:1;" d="M 59.527344 140.445312 C 60.769531 136.101562 61.78125 129.367188 60.132812 128 C 60.058594 127.976562 59.96875 127.929688 59.894531 127.917969 C 56.679688 127.386719 51.914062 144.058594 54.164062 147.960938 C 55.332031 149.980469 57.785156 146.539062 59.527344 140.445312 "/><path style=" stroke:none;fill-rule:nonzero;fill:#ffffff;fill-opacity:1;" d="M 62.855469 132.910156 C 64.238281 135.4375 67.660156 131.917969 70.035156 125.527344 C 71.609375 121.292969 72.867188 114.832031 70.730469 113.726562 C 66.734375 113.015625 60.40625 128.433594 62.855469 132.910156 "/><path style=" stroke:none;fill-rule:nonzero;fill:#ffffff;fill-opacity:1;" d="M 62.28125 159.246094 C 63.082031 154.765625 63.046875 147.898438 60.472656 146.644531 C 60.367188 146.625 60.230469 146.585938 60.128906 146.578125 C 55.964844 146.359375 52.902344 162.332031 56.230469 166.929688 C 58.160156 169.59375 61.101562 165.859375 62.28125 159.246094 "/><path style=" stroke:none;fill-rule:nonzero;fill:#ffffff;fill-opacity:1;" d="M 64.816406 150.945312 C 67.027344 154.195312 71.109375 150.378906 72.902344 143.375 C 74.027344 138.976562 74.214844 132.339844 71.109375 131.359375 C 65.558594 130.917969 61.6875 146.335938 64.816406 150.945312 "/><path style=" stroke:none;fill-rule:nonzero;fill:#ffffff;fill-opacity:1;" d="M 101.46875 161.53125 C 101.933594 156.976562 100.320312 150.433594 95.277344 150.160156 C 88.195312 150.804688 85.445312 163.445312 89.667969 169.078125 C 93.753906 174.519531 100.589844 170.148438 101.46875 161.53125 "/><path style=" stroke:none;fill-rule:nonzero;fill:#ffffff;fill-opacity:1;" d="M 114.425781 178.332031 C 114.496094 173.699219 111.992188 167.160156 106.214844 167.132812 C 98.109375 168.15625 96.4375 180.894531 101.933594 186.527344 C 107.058594 191.78125 114.300781 187.035156 114.425781 178.332031 "/><path style=" stroke:none;fill-rule:nonzero;fill:#ffffff;fill-opacity:1;" d="M 117.148438 203.503906 C 123.164062 208.519531 130.734375 203.429688 130.214844 194.71875 C 129.933594 190.035156 126.65625 183.539062 120.238281 183.765625 C 111.40625 185.152344 110.628906 198.066406 117.148438 203.503906 "/><path style=" stroke:none;fill-rule:nonzero;fill:#ffffff;fill-opacity:1;" d="M 136.941406 199.953125 C 128.144531 201.578125 127.53125 213.648438 134.023438 219.238281 C 140.75 225.027344 149.460938 219.773438 148.367188 210.589844 C 147.804688 205.882812 143.890625 199.46875 136.941406 199.953125 "/><path style=" stroke:none;fill-rule:nonzero;fill:#ffffff;fill-opacity:1;" d="M 87.75 133.039062 C 81.226562 133.363281 77.53125 146.746094 81.113281 151.976562 C 84.265625 156.578125 90.125 152.4375 91.738281 144.464844 C 92.636719 140.023438 91.996094 133.542969 87.75 133.039062 "/><path style=" stroke:none;fill-rule:nonzero;fill:#ffffff;fill-opacity:1;" d="M 75.851562 134.667969 C 78.132812 138.457031 83.175781 134.601562 85.488281 127.296875 C 86.847656 123.007812 87.226562 116.652344 83.820312 115.953125 C 77.957031 115.933594 72.964844 129.871094 75.851562 134.667969 "/><path style=" stroke:none;fill-rule:nonzero;fill:#ffffff;fill-opacity:1;" d="M 92.863281 222.96875 L 92.792969 223.089844 L 92.808594 223.101562 Z M 92.863281 222.96875 "/><path style=" stroke:none;fill-rule:nonzero;fill:#ffffff;fill-opacity:1;" d="M 97.195312 240.644531 L 97.324219 240.761719 L 97.210938 240.644531 C 97.203125 240.644531 97.199219 240.644531 97.195312 240.644531 "/><path style=" stroke:none;fill-rule:nonzero;fill:#ffffff;fill-opacity:1;" d="M 152.035156 298.464844 C 158.507812 301.003906 162.984375 297.515625 160.441406 291.914062 C 158.9375 288.609375 154.132812 284.078125 148.152344 284.34375 C 147.527344 284.4375 146.75 284.554688 146.011719 284.929688 C 141.011719 287.457031 144.617188 295.554688 152.035156 298.464844 "/><path style=" stroke:none;fill-rule:nonzero;fill:#ffffff;fill-opacity:1;" d="M 151.070312 311.511719 C 155.992188 312.464844 158.011719 309.515625 155.308594 305.324219 C 153.566406 302.621094 148.722656 298.355469 143.148438 298.417969 C 142.78125 298.441406 141.65625 298.515625 140.789062 299.144531 C 136.863281 301.972656 143.589844 310.066406 151.070312 311.511719 "/><path style=" stroke:none;fill-rule:nonzero;fill:#ffffff;fill-opacity:1;" d="M 126.742188 159.554688 C 126.980469 155.210938 124.800781 149.164062 119.203125 149.328125 C 112.378906 150.046875 109.027344 161.054688 113.851562 166.910156 C 118.449219 172.484375 126.277344 168.015625 126.742188 159.554688 "/><path style=" stroke:none;fill-rule:nonzero;fill:#ffffff;fill-opacity:1;" d="M 108.480469 133.273438 C 101.742188 134.15625 98.605469 145.585938 102.296875 150.667969 C 105.929688 155.671875 112.738281 151.746094 114.046875 143.886719 C 114.769531 139.546875 113.519531 133.386719 108.480469 133.273438 "/><path style=" stroke:none;fill-rule:nonzero;fill:#ffffff;fill-opacity:1;" d="M 49.925781 141.984375 C 50.691406 141.574219 52.039062 137.375 52.773438 134.910156 C 53.066406 133.933594 55.609375 125.320312 55.230469 123.222656 C 55.199219 123.160156 55.132812 123.078125 55.070312 123.054688 C 55.035156 123.070312 54.984375 123.082031 54.949219 123.105469 C 53.210938 124.277344 48.605469 141.570312 49.925781 141.984375 "/><path style=" stroke:none;fill-rule:nonzero;fill:#ffffff;fill-opacity:1;" d="M 167.703125 276.3125 C 166.503906 272.925781 162.332031 268.070312 155.746094 268.582031 C 155.25 268.671875 154.585938 268.792969 154.109375 268.964844 C 147.960938 271.152344 149.753906 280.042969 157.066406 283.597656 C 163.367188 286.660156 170.171875 283.285156 167.703125 276.3125 "/><path style=" stroke:none;fill-rule:nonzero;fill:#ffffff;fill-opacity:1;" d="M 141.117188 329 C 142.027344 328.851562 139.980469 327.109375 137.761719 325.527344 C 135.242188 323.734375 129.597656 320.125 126.265625 319.304688 C 125.871094 319.25 125.523438 319.203125 125.4375 319.425781 C 124.8125 321 138.585938 329.410156 141.117188 329 "/><path style=" stroke:none;fill-rule:nonzero;fill:#ffffff;fill-opacity:1;" d="M 151.8125 321.964844 C 155.273438 322.207031 155.742188 320.074219 152.929688 316.894531 C 151.085938 314.8125 146.222656 310.832031 141.019531 310.671875 C 140.324219 310.71875 139.667969 310.765625 139.121094 311.175781 C 135.945312 313.550781 145.316406 321.515625 151.8125 321.964844 "/><path style=" stroke:none;fill-rule:nonzero;fill:#ffffff;fill-opacity:1;" d="M 94.128906 134.285156 C 96.65625 138.007812 102.550781 135.160156 104.5 127.667969 C 105.214844 124.925781 106.003906 117.722656 101.132812 117.375 C 94.980469 117.953125 91.03125 129.722656 94.128906 134.285156 "/><path style=" stroke:none;fill-rule:nonzero;fill:#ffffff;fill-opacity:1;" d="M 60.675781 121.289062 C 61.972656 118.101562 64.199219 111.675781 63.332031 110.164062 C 63.289062 110.136719 63.238281 110.082031 63.1875 110.066406 C 61.203125 109.386719 54.914062 125.132812 56.105469 127.804688 C 56.6875 129.109375 58.609375 126.371094 60.675781 121.289062 "/><path style=" stroke:none;fill-rule:nonzero;fill:#ffffff;fill-opacity:1;" d="M 133.039062 165.394531 C 124.722656 166.925781 123.960938 178.101562 128.574219 182.910156 C 133.523438 188.074219 142.273438 184.441406 142.050781 175.273438 C 141.90625 169.253906 137.863281 164.820312 133.039062 165.394531 "/><path style=" stroke:none;fill-rule:nonzero;fill:#ffffff;fill-opacity:1;" d="M 167.375 225.847656 C 166.660156 221.746094 163.035156 215.898438 155.988281 216.597656 C 147.640625 217.914062 147.503906 229.460938 153.96875 234.261719 C 160.152344 238.859375 168.925781 234.753906 167.375 225.847656 "/><path style=" stroke:none;fill-rule:nonzero;fill:#ffffff;fill-opacity:1;" d="M 164.515625 266.578125 C 171.328125 270.847656 178.863281 266.433594 177.113281 259.199219 C 175.882812 254.117188 170.402344 250.3125 165.386719 251.054688 C 165.128906 251.109375 164.785156 251.164062 164.535156 251.230469 C 157.621094 253.074219 157.609375 262.253906 164.515625 266.578125 "/><path style=" stroke:none;fill-rule:nonzero;fill:#ffffff;fill-opacity:1;" d="M 83.191406 100.074219 C 78.847656 99.800781 72.914062 112.738281 74.5625 116.53125 C 75.757812 119.277344 79.691406 116.21875 82.355469 110.46875 C 83.988281 106.945312 85.65625 101.011719 83.191406 100.074219 "/><path style=" stroke:none;fill-rule:nonzero;fill:#ffffff;fill-opacity:1;" d="M 155.128906 330.351562 C 156.820312 330.210938 156.25 328.636719 153.734375 326.527344 C 150.316406 323.660156 144.804688 321.042969 141.945312 320.921875 C 141.421875 320.933594 140.925781 320.941406 140.601562 321.246094 C 138.453125 323.269531 150.402344 330.757812 155.128906 330.351562 "/><path style=" stroke:none;fill-rule:nonzero;fill:#ffffff;fill-opacity:1;" d="M 97.328125 101.574219 C 92.449219 101.894531 86.964844 112.5625 89.175781 117.429688 C 90.941406 121.308594 96.269531 117.703125 98.683594 110.996094 C 99.996094 107.347656 100.441406 102.011719 97.328125 101.574219 "/><path style=" stroke:none;fill-rule:nonzero;fill:#ffffff;fill-opacity:1;" d="M 65.238281 113.632812 C 65.882812 115.339844 68.714844 112.3125 71.300781 107.152344 C 73.027344 103.710938 75.0625 98.128906 73.941406 97.089844 C 73.933594 97.085938 73.925781 97.082031 73.917969 97.078125 C 71.308594 96.066406 63.925781 110.144531 65.238281 113.632812 "/><path style=" stroke:none;fill-rule:nonzero;fill:#ffffff;fill-opacity:1;" d="M 149.546875 181.152344 C 142.070312 182.328125 139.929688 193.246094 146.132812 198.59375 C 152.210938 203.835938 160.457031 198.878906 159.703125 190.433594 C 159.328125 186.214844 155.929688 180.546875 149.546875 181.152344 "/><path style=" stroke:none;fill-rule:nonzero;fill:#ffffff;fill-opacity:1;" d="M 180.589844 302.78125 C 179.023438 299.007812 173.476562 295.929688 169.175781 296.453125 C 168.78125 296.523438 168.253906 296.621094 167.875 296.753906 C 163.105469 298.453125 164.296875 304.886719 171.605469 307.984375 C 178.128906 310.75 182.460938 307.296875 180.589844 302.78125 "/><path style=" stroke:none;fill-rule:nonzero;fill:#ffffff;fill-opacity:1;" d="M 175.339844 315.164062 C 173.714844 312.679688 168.882812 309.359375 164.039062 309.585938 C 163.167969 309.675781 162.453125 309.917969 161.914062 310.308594 C 158.496094 312.789062 163.734375 318.835938 170.535156 320.261719 C 175.761719 321.355469 177.4375 318.367188 175.339844 315.164062 "/><path style=" stroke:none;fill-rule:nonzero;fill:#ffffff;fill-opacity:1;" d="M 132.535156 131.664062 C 126.898438 132.40625 122.820312 141.976562 127.296875 147.464844 C 131.433594 152.535156 138.644531 148.554688 139.355469 140.8125 C 139.726562 136.796875 137.558594 131.378906 132.535156 131.664062 "/><path style=" stroke:none;fill-rule:nonzero;fill:#ffffff;fill-opacity:1;" d="M 127.078125 125.613281 C 127.960938 120.582031 125.554688 116.261719 122.039062 116.554688 C 116.144531 117.542969 112.433594 127.367188 116.109375 132.242188 C 119.625 136.902344 125.9375 132.144531 127.078125 125.613281 "/><path style=" stroke:none;fill-rule:nonzero;fill:#ffffff;fill-opacity:1;" d="M 65.308594 103.023438 C 66.039062 101.667969 69.671875 94.835938 69.542969 93.132812 C 69.523438 93.101562 69.507812 93.050781 69.480469 93.03125 C 68.339844 92.1875 60.695312 106.691406 61.300781 108.550781 C 61.539062 109.285156 63.074219 107.164062 65.308594 103.023438 "/><path style=" stroke:none;fill-rule:nonzero;fill:#ffffff;fill-opacity:1;" d="M 107.972656 116.492188 C 110.195312 120.363281 116.152344 117.417969 117.992188 110.097656 C 118.832031 106.777344 118.703125 101.808594 114.925781 101.738281 C 109.449219 102.472656 105.5625 112.296875 107.972656 116.492188 "/><path style=" stroke:none;fill-rule:nonzero;fill:#ffffff;fill-opacity:1;" d="M 146.152344 146.863281 C 139.558594 147.898438 136.910156 158.144531 141.984375 162.988281 C 146.910156 167.6875 154.554688 163.019531 154.378906 155.414062 C 154.292969 151.816406 151.988281 146.308594 146.152344 146.863281 "/><path style=" stroke:none;fill-rule:nonzero;fill:#ffffff;fill-opacity:1;" d="M 187.789062 287.695312 C 186.21875 283.640625 181.332031 280.878906 176.890625 281.535156 C 176.453125 281.625 175.867188 281.746094 175.449219 281.898438 C 169.878906 283.894531 171.105469 291.140625 177.53125 294.199219 C 183.972656 297.269531 190.015625 293.4375 187.789062 287.695312 "/><path style=" stroke:none;fill-rule:nonzero;fill:#ffffff;fill-opacity:1;" d="M 172.777344 325.644531 C 170.035156 322.820312 165.128906 320.667969 161.835938 320.84375 C 161.289062 320.902344 160.367188 321 159.855469 321.542969 C 157.65625 323.855469 165.828125 329.648438 171.511719 329.804688 C 174.667969 329.894531 175.199219 328.144531 172.777344 325.644531 "/><path style=" stroke:none;fill-rule:nonzero;fill:#ffffff;fill-opacity:1;" d="M 96.984375 86.464844 C 93.367188 86.128906 86.632812 96.890625 87.980469 100.855469 C 88.921875 103.632812 93.09375 101.371094 96.234375 95.15625 C 97.628906 92.398438 99.578125 87.03125 96.984375 86.464844 "/><path style=" stroke:none;fill-rule:nonzero;fill:#ffffff;fill-opacity:1;" d="M 160.351562 336.699219 C 161.15625 336.535156 159.949219 335.46875 157.128906 333.847656 C 156.433594 333.449219 150.230469 329.933594 146.308594 329.375 C 145.894531 329.351562 145.507812 329.328125 145.375 329.527344 C 144.480469 330.855469 157.78125 337.222656 160.351562 336.699219 "/><path style=" stroke:none;fill-rule:nonzero;fill:#ffffff;fill-opacity:1;" d="M 197.335938 271.503906 C 196.554688 268.335938 193.050781 263.933594 186.589844 264.78125 C 186.589844 264.78125 186.589844 264.78125 186.585938 264.78125 C 186.585938 264.785156 186.585938 264.785156 186.585938 264.785156 C 186.582031 264.785156 186.582031 264.785156 186.582031 264.785156 C 186.582031 264.785156 186.582031 264.785156 186.578125 264.785156 C 186.578125 264.785156 186.574219 264.789062 186.574219 264.789062 C 186.574219 264.789062 186.570312 264.789062 186.570312 264.789062 C 185.578125 265.015625 183.523438 265.488281 182.128906 267.375 C 178.800781 271.875 183.304688 280.492188 192 279.34375 C 192 279.34375 192 279.34375 192.003906 279.34375 C 192.003906 279.339844 192.003906 279.339844 192.003906 279.339844 C 192.003906 279.339844 192.007812 279.339844 192.007812 279.339844 C 192.011719 279.339844 192.011719 279.339844 192.011719 279.339844 C 192.011719 279.339844 192.011719 279.339844 192.015625 279.335938 C 192.019531 279.335938 192.019531 279.335938 192.019531 279.335938 C 198.683594 277.804688 197.492188 272.144531 197.335938 271.503906 "/><path style=" stroke:none;fill-rule:nonzero;fill:#ffffff;fill-opacity:1;" d="M 187.769531 240.375 C 187.136719 236.742188 183.542969 231.292969 176.59375 232.136719 C 168.5 234.03125 168.542969 243.933594 174.859375 248.085938 C 181.332031 252.335938 189.054688 247.726562 187.769531 240.375 "/><path style=" stroke:none;fill-rule:nonzero;fill:#ffffff;fill-opacity:1;" d="M 168.339844 196.765625 C 160.863281 198.148438 159.289062 208.886719 165.859375 213.664062 C 172.152344 218.242188 180.066406 213.082031 178.886719 205.171875 C 178.199219 200.546875 174.265625 196.027344 168.339844 196.765625 "/><path style=" stroke:none;fill-rule:nonzero;fill:#ffffff;fill-opacity:1;" d="M 57.324219 115.582031 C 58.414062 112.96875 60.992188 106.710938 61.3125 105.15625 C 61.320312 105.117188 61.316406 105.0625 61.320312 105.023438 C 61.292969 105.023438 61.257812 105.023438 61.230469 105.023438 C 60.152344 106.355469 54.117188 120.632812 54.621094 121.511719 C 54.78125 121.289062 55.15625 120.769531 57.324219 115.582031 "/><path style=" stroke:none;fill-rule:nonzero;fill:#ffffff;fill-opacity:1;" d="M 144.636719 332.042969 C 137.515625 328.351562 135.480469 327.460938 134.429688 327.078125 C 134.429688 327.078125 134.429688 327.078125 134.425781 327.078125 C 134.421875 327.078125 134.421875 327.074219 134.421875 327.074219 C 134.421875 327.074219 134.421875 327.074219 134.417969 327.074219 C 134.316406 327.046875 134.179688 327.007812 134.078125 326.992188 C 134.070312 327.015625 134.0625 327.050781 134.058594 327.074219 C 135.535156 328.472656 147.980469 334.488281 149.453125 334.714844 C 149.394531 334.589844 149.351562 334.492188 144.636719 332.042969 "/><path style=" stroke:none;fill-rule:nonzero;fill:#ffffff;fill-opacity:1;" d="M 76.886719 99.035156 C 77.410156 100.882812 80.3125 99.0625 83.636719 93.484375 C 83.828125 93.164062 88.304688 85.613281 86.371094 84.421875 C 83.046875 83.898438 76.046875 96.066406 76.886719 99.035156 "/><path style=" stroke:none;fill-rule:nonzero;fill:#ffffff;fill-opacity:1;" d="M 174.082031 337.101562 C 174.085938 337.101562 174.085938 337.101562 174.085938 337.101562 C 174.089844 337.101562 174.089844 337.101562 174.089844 337.101562 C 174.203125 337.09375 174.355469 337.089844 174.46875 337.078125 C 176.0625 336.894531 175.628906 335.730469 173.367188 334.113281 C 170.164062 331.824219 165.355469 329.988281 162.644531 330.019531 C 162.160156 330.050781 161.664062 330.085938 161.347656 330.34375 C 159.621094 331.773438 168.398438 336.992188 174.082031 337.101562 "/><path style=" stroke:none;fill-rule:nonzero;fill:#ffffff;fill-opacity:1;" d="M 111.375 87.125 C 110.832031 87.183594 110.007812 87.265625 108.621094 88.394531 C 103.652344 92.429688 100.855469 102.015625 105.550781 102.359375 C 105.550781 102.359375 105.550781 102.359375 105.554688 102.359375 C 105.554688 102.359375 105.554688 102.359375 105.558594 102.359375 C 105.5625 102.359375 105.5625 102.359375 105.5625 102.359375 C 109.449219 101.960938 111.988281 96.199219 112.261719 95.542969 C 113.980469 91.480469 114.03125 87.125 111.375 87.125 "/><path style=" stroke:none;fill-rule:nonzero;fill:#ffffff;fill-opacity:1;" d="M 80.160156 81.117188 C 78.921875 80.832031 69.628906 93.140625 70.875 95.667969 C 70.875 95.667969 70.875 95.667969 70.875 95.671875 C 70.875 95.671875 70.875 95.671875 70.878906 95.671875 C 70.875 95.671875 70.878906 95.671875 70.878906 95.671875 C 71.953125 96.296875 75.707031 90.597656 76.132812 89.945312 C 77.472656 87.890625 80.832031 82.304688 80.277344 81.183594 C 80.242188 81.164062 80.199219 81.128906 80.160156 81.117188 "/><path style=" stroke:none;fill-rule:nonzero;fill:#ffffff;fill-opacity:1;" d="M 162.53125 161.902344 C 154.515625 163.785156 154.359375 173.820312 159.101562 177.835938 C 164.035156 182.007812 172.285156 178.242188 171.738281 170.246094 C 171.367188 164.828125 167.238281 161.085938 162.53125 161.902344 "/><path style=" stroke:none;fill-rule:nonzero;fill:#ffffff;fill-opacity:1;" d="M 181.160156 176.667969 C 174.503906 178.398438 172.582031 186.941406 177.785156 191.65625 C 183.78125 197.089844 191.527344 191.6875 190.914062 184.609375 C 190.582031 180.757812 187.007812 175.855469 181.160156 176.667969 "/><path style=" stroke:none;fill-rule:nonzero;fill:#ffffff;fill-opacity:1;" d="M 199.335938 219.863281 C 198.65625 214.816406 193.515625 210.921875 188.757812 211.851562 C 181.921875 213.65625 180.289062 222.566406 185.945312 227.230469 C 192.609375 232.726562 200.316406 227.175781 199.335938 219.863281 "/><path style=" stroke:none;fill-rule:nonzero;fill:#ffffff;fill-opacity:1;" d="M 208.230469 253.097656 C 207.402344 248.71875 202.355469 245.433594 197.839844 246.328125 C 191.128906 248.082031 189.839844 256.015625 195.617188 260.019531 C 202.214844 264.597656 209.429688 259.464844 208.230469 253.097656 "/><path style=" stroke:none;fill-rule:nonzero;fill:#ffffff;fill-opacity:1;" d="M 90.480469 84.816406 C 90.808594 87.1875 94.648438 84.085938 97.558594 79.886719 C 99.648438 76.875 101.777344 72.394531 100.332031 71.8125 C 97.269531 71.710938 89.992188 81.308594 90.480469 84.816406 "/><path style=" stroke:none;fill-rule:nonzero;fill:#ffffff;fill-opacity:1;" d="M 199.820312 311.835938 C 198.582031 308.789062 193.675781 306.347656 189.914062 306.902344 C 189.5625 306.972656 189.09375 307.074219 188.757812 307.195312 C 184.765625 308.652344 185.304688 313.597656 191.078125 316.113281 C 196.984375 318.6875 201.398438 315.714844 199.820312 311.835938 "/><path style=" stroke:none;fill-rule:nonzero;fill:#ffffff;fill-opacity:1;" d="M 153.808594 335.820312 C 153.707031 335.804688 153.5625 335.789062 153.457031 335.789062 C 153.445312 335.816406 153.425781 335.851562 153.414062 335.878906 C 154.675781 337.121094 165.65625 340.960938 168.152344 341.34375 C 168.175781 341.320312 168.210938 341.289062 168.234375 341.269531 C 167.816406 341.003906 166.355469 340.375 163.894531 339.398438 C 163.125 339.089844 156.269531 336.382812 153.808594 335.820312 "/><path style=" stroke:none;fill-rule:nonzero;fill:#ffffff;fill-opacity:1;" d="M 102.699219 85.789062 C 103.523438 88.363281 107.570312 85.679688 110.425781 80.664062 C 111.980469 77.9375 113.617188 73.46875 111.398438 73.085938 C 107.777344 73.34375 101.597656 82.367188 102.699219 85.789062 "/><path style=" stroke:none;fill-rule:nonzero;fill:#ffffff;fill-opacity:1;" d="M 179.601562 342.324219 C 180.214844 341.96875 177.601562 340.714844 176.789062 340.335938 C 173.648438 338.882812 168.886719 337.261719 166.664062 337.167969 C 166.308594 337.171875 165.945312 337.175781 165.835938 337.355469 C 165.046875 338.65625 177.914062 343.296875 179.601562 342.324219 "/><path style=" stroke:none;fill-rule:nonzero;fill:#ffffff;fill-opacity:1;" d="M 145.644531 114.332031 C 140.082031 115.574219 137.335938 124.101562 141.121094 128.371094 C 144.804688 132.527344 151.253906 128.671875 151.734375 122.027344 C 152.066406 117.496094 149.164062 113.828125 145.644531 114.332031 "/><path style=" stroke:none;fill-rule:nonzero;fill:#ffffff;fill-opacity:1;" d="M 135.375 100.28125 C 130.410156 101.273438 127.074219 109.394531 129.875 113.65625 C 132.644531 117.855469 138.667969 114.382812 139.796875 107.941406 C 140.558594 103.578125 138.453125 99.929688 135.375 100.28125 "/><path style=" stroke:none;fill-rule:nonzero;fill:#ffffff;fill-opacity:1;" d="M 189.453125 327.367188 C 194.328125 328.382812 196.261719 325.9375 194.425781 323.222656 C 192.664062 320.621094 187.996094 318.617188 184.628906 319.023438 C 183.992188 319.136719 183.386719 319.242188 182.769531 319.667969 C 179.804688 321.703125 183.679688 326.164062 189.453125 327.367188 "/><path style=" stroke:none;fill-rule:nonzero;fill:#ffffff;fill-opacity:1;" d="M 82.777344 82.316406 C 82.992188 83.609375 85.578125 81.488281 88.660156 77.488281 C 88.714844 77.417969 93.890625 70.675781 92.914062 69.59375 C 90.867188 69.03125 82.34375 79.734375 82.777344 82.316406 "/><path style=" stroke:none;fill-rule:nonzero;fill:#ffffff;fill-opacity:1;" d="M 190.503906 335.878906 C 193.253906 335.84375 193.757812 334.441406 191.703125 332.542969 C 190.078125 331.042969 186.21875 328.886719 182.265625 329.109375 C 181.789062 329.160156 180.925781 329.304688 180.476562 329.75 C 178.515625 331.707031 185.449219 335.945312 190.503906 335.878906 "/><path style=" stroke:none;fill-rule:nonzero;fill:#ffffff;fill-opacity:1;" d="M 128.5 86.570312 C 124.195312 87 120.03125 95.621094 122.316406 99.382812 C 124.191406 102.476562 129.386719 99.863281 131.066406 93.8125 C 131.886719 90.859375 131.882812 86.5 128.5 86.570312 "/><path style=" stroke:none;fill-rule:nonzero;fill:#ffffff;fill-opacity:1;" d="M 159.089844 128.601562 C 153.292969 129.640625 150.933594 138.496094 155.324219 142.738281 C 159.316406 146.597656 166.621094 143.203125 166.421875 135.976562 C 166.328125 132.664062 164.300781 127.96875 159.089844 128.601562 "/><path style=" stroke:none;fill-rule:nonzero;fill:#ffffff;fill-opacity:1;" d="M 207.292969 297.882812 C 206.472656 295.5625 203.152344 292.160156 197.730469 292.894531 C 197.34375 292.964844 196.761719 293.101562 196.179688 293.347656 C 191.625 295.261719 192.515625 301 197.738281 303.40625 C 203.265625 305.949219 208.980469 302.648438 207.292969 297.882812 "/><path style=" stroke:none;fill-rule:nonzero;fill:#ffffff;fill-opacity:1;" d="M 73.191406 85.582031 C 75.390625 82.386719 78.082031 78.324219 78.445312 77.125 C 78.429688 77.089844 78.410156 77.035156 78.398438 77 C 77.109375 77.441406 69.359375 89.089844 69.671875 90.121094 C 69.816406 90.070312 70.203125 89.9375 73.191406 85.582031 "/><path style=" stroke:none;fill-rule:nonzero;fill:#ffffff;fill-opacity:1;" d="M 84.070312 73.992188 C 84.125 73.929688 89.414062 67.558594 89.421875 66.355469 C 89.40625 66.339844 89.382812 66.316406 89.367188 66.296875 C 87.871094 66.226562 78.828125 77.40625 79.597656 78.378906 C 80.261719 78.429688 82.683594 75.652344 84.070312 73.992188 "/><path style=" stroke:none;fill-rule:nonzero;fill:#ffffff;fill-opacity:1;" d="M 173.980469 342.335938 C 173.636719 342.3125 173.636719 342.3125 173.542969 342.402344 C 174.359375 343.207031 185.949219 346.066406 187.019531 345.730469 C 186.878906 345.652344 186.640625 345.519531 183.363281 344.609375 C 178.652344 343.300781 175.492188 342.535156 173.980469 342.335938 "/><path style=" stroke:none;fill-rule:nonzero;fill:#ffffff;fill-opacity:1;" d="M 201.460938 191.328125 C 195.109375 192.804688 193.472656 201.363281 198.722656 205.640625 C 204.363281 210.234375 212.089844 205.679688 211.066406 198.367188 C 210.570312 194.847656 207.265625 190.339844 201.460938 191.328125 "/><path style=" stroke:none;fill-rule:nonzero;fill:#ffffff;fill-opacity:1;" d="M 212.003906 289.140625 C 212.003906 289.140625 212.003906 289.140625 212.007812 289.140625 C 212.007812 289.140625 212.011719 289.140625 212.011719 289.140625 C 212.011719 289.140625 212.015625 289.140625 212.015625 289.140625 C 212.019531 289.140625 212.019531 289.140625 212.023438 289.140625 C 212.023438 289.140625 212.023438 289.136719 212.027344 289.136719 C 212.027344 289.136719 212.03125 289.136719 212.03125 289.136719 C 212.03125 289.136719 212.035156 289.136719 212.035156 289.136719 C 217.96875 287.65625 217.035156 282.882812 216.910156 282.339844 C 216.292969 279.699219 213.296875 276.097656 207.578125 277.003906 C 205.324219 277.46875 204.117188 278.660156 203.597656 279.328125 C 200.320312 283.554688 204.871094 290.234375 211.996094 289.144531 C 212 289.144531 212 289.144531 212.003906 289.140625 "/><path style=" stroke:none;fill-rule:nonzero;fill:#ffffff;fill-opacity:1;" d="M 125.234375 73.175781 C 121.75 73.417969 116.957031 81.210938 118.113281 84.753906 C 119.078125 87.710938 123.527344 85.613281 125.945312 79.960938 C 127.050781 77.378906 127.832031 73.253906 125.234375 73.175781 "/><path style=" stroke:none;fill-rule:nonzero;fill:#ffffff;fill-opacity:1;" d="M 96.679688 69.382812 C 96.636719 70.867188 99.53125 68.855469 102.871094 65.078125 C 104.589844 63.136719 107.867188 58.921875 107.03125 58.296875 C 104.882812 58.078125 96.757812 66.78125 96.679688 69.382812 "/><path style=" stroke:none;fill-rule:nonzero;fill:#ffffff;fill-opacity:1;" d="M 193.347656 341.90625 C 194.347656 341.605469 193.746094 340.703125 191.8125 339.609375 C 190.1875 338.6875 186.238281 336.964844 182.921875 337.042969 C 182.921875 337.042969 182.921875 337.042969 182.917969 337.042969 C 182.917969 337.042969 182.917969 337.042969 182.914062 337.042969 C 182.910156 337.042969 182.910156 337.042969 182.910156 337.042969 C 182.910156 337.042969 182.910156 337.042969 182.90625 337.042969 C 182.90625 337.042969 182.90625 337.042969 182.902344 337.042969 C 182.902344 337.042969 182.898438 337.042969 182.898438 337.042969 C 182.503906 337.085938 181.847656 337.152344 181.625 337.488281 C 180.511719 339.160156 190.261719 342.839844 193.347656 341.90625 "/><path style=" stroke:none;fill-rule:nonzero;fill:#ffffff;fill-opacity:1;" d="M 175.277344 142.769531 C 175.277344 142.769531 175.277344 142.769531 175.273438 142.769531 C 175.273438 142.769531 175.269531 142.769531 175.269531 142.769531 C 175.265625 142.769531 175.265625 142.769531 175.265625 142.769531 C 175.261719 142.773438 175.261719 142.773438 175.257812 142.773438 C 175.257812 142.773438 175.257812 142.773438 175.253906 142.773438 C 175.253906 142.773438 175.25 142.773438 175.25 142.773438 C 175.246094 142.773438 175.246094 142.777344 175.246094 142.777344 C 175.242188 142.777344 175.242188 142.777344 175.238281 142.777344 C 168.140625 144.6875 168.199219 153.710938 172.511719 157.007812 C 177.40625 160.757812 184.101562 156.398438 183.53125 149.835938 C 183.253906 146.675781 180.769531 141.960938 175.277344 142.769531 "/><path style=" stroke:none;fill-rule:nonzero;fill:#ffffff;fill-opacity:1;" d="M 166.179688 341 L 166.632812 341.132812 C 166.296875 341.03125 165.945312 340.929688 165.617188 340.824219 L 166.179688 341 "/><path style=" stroke:none;fill-rule:nonzero;fill:#ffffff;fill-opacity:1;" d="M 219.820312 233.070312 C 218.980469 228.597656 214.542969 225.640625 210.125 226.613281 C 202.976562 228.621094 202.667969 237.15625 208.035156 240.628906 C 213.792969 244.355469 221.058594 239.691406 219.820312 233.070312 "/><path style=" stroke:none;fill-rule:nonzero;fill:#ffffff;fill-opacity:1;" d="M 105.519531 71.054688 C 105.882812 72.832031 109.292969 70.511719 112.402344 66.371094 C 113.882812 64.410156 116.449219 60.226562 114.960938 59.824219 C 112.609375 59.617188 104.898438 67.988281 105.519531 71.054688 "/><path style=" stroke:none;fill-rule:nonzero;fill:#ffffff;fill-opacity:1;" d="M 228.074219 264.992188 C 227.679688 261.613281 223.851562 258.429688 218.984375 259.261719 C 213.363281 260.820312 211.757812 267.003906 216.074219 270.472656 C 221.539062 274.863281 228.722656 270.585938 228.074219 264.992188 "/><path style=" stroke:none;fill-rule:nonzero;fill:#ffffff;fill-opacity:1;" d="M 197.820312 346.007812 C 198.292969 345.75 196.175781 344.988281 195.519531 344.757812 C 192.824219 343.828125 188.539062 342.804688 186.707031 342.828125 C 186.433594 342.839844 185.984375 342.867188 185.984375 343.078125 C 185.976562 344.144531 196.484375 346.746094 197.820312 346.007812 "/><path style=" stroke:none;fill-rule:nonzero;fill:#ffffff;fill-opacity:1;" d="M 193.8125 156.707031 C 193.8125 156.707031 193.8125 156.707031 193.808594 156.710938 C 193.808594 156.710938 193.804688 156.710938 193.804688 156.710938 C 193.804688 156.710938 193.800781 156.710938 193.800781 156.710938 C 193.800781 156.710938 193.796875 156.710938 193.796875 156.710938 C 193.792969 156.710938 193.792969 156.710938 193.792969 156.710938 C 193.789062 156.714844 193.789062 156.714844 193.789062 156.714844 C 193.785156 156.714844 193.785156 156.714844 193.78125 156.714844 C 193.78125 156.714844 193.78125 156.714844 193.777344 156.714844 C 187.585938 158.515625 186.296875 166.996094 191.652344 170.679688 C 197.269531 174.539062 203.410156 169.21875 202.527344 163.199219 C 202.054688 159.972656 198.765625 155.917969 193.8125 156.707031 "/><path style=" stroke:none;fill-rule:nonzero;fill:#ffffff;fill-opacity:1;" d="M 117.777344 71.101562 C 118.382812 73.15625 121.988281 70.753906 124.542969 66.601562 C 125.730469 64.671875 127.550781 60.617188 125.609375 60.375 C 122.4375 60.765625 116.949219 68.28125 117.777344 71.101562 "/><path style=" stroke:none;fill-rule:nonzero;fill:#ffffff;fill-opacity:1;" d="M 91.996094 66.613281 C 91.996094 66.613281 91.996094 66.613281 91.996094 66.617188 C 92 66.617188 92 66.617188 92 66.617188 C 92.757812 66.933594 96.269531 63.402344 97.328125 62.3125 C 97.542969 62.09375 102.570312 56.898438 102.324219 56 C 102.296875 55.988281 102.265625 55.964844 102.238281 55.960938 C 101.203125 55.785156 91.28125 64.832031 91.996094 66.613281 "/><path style=" stroke:none;fill-rule:nonzero;fill:#ffffff;fill-opacity:1;" d="M 217.523438 319.222656 C 216.707031 317.464844 213.707031 315.242188 209.601562 315.804688 C 209.023438 315.914062 208.441406 316.109375 208.007812 316.34375 C 204.941406 317.988281 206.28125 321.6875 210.476562 323.167969 C 214.941406 324.742188 219.027344 322.457031 217.523438 319.222656 "/><path style=" stroke:none;fill-rule:nonzero;fill:#ffffff;fill-opacity:1;" d="M 154.371094 109.480469 C 157.625 113.003906 163.164062 109.367188 163.21875 103.675781 C 163.246094 100.933594 161.632812 97.257812 157.960938 97.679688 C 153.453125 98.519531 151.175781 106.019531 154.371094 109.480469 "/><path style=" stroke:none;fill-rule:nonzero;fill:#ffffff;fill-opacity:1;" d="M 207.523438 333 C 211.347656 333.695312 213.648438 332.050781 212.082031 329.746094 C 210.71875 327.734375 207.011719 326.339844 204.148438 326.761719 C 203.6875 326.851562 202.914062 327 202.328125 327.464844 C 200.261719 329.109375 203.175781 332.210938 207.523438 333 "/><path style=" stroke:none;fill-rule:nonzero;fill:#ffffff;fill-opacity:1;" d="M 147.886719 84.789062 C 143.351562 85.789062 141.210938 93.335938 143.726562 96.21875 C 146.050781 98.886719 150.941406 96.226562 151.65625 90.777344 C 152.078125 87.578125 150.753906 84.375 147.886719 84.789062 "/><path style=" stroke:none;fill-rule:nonzero;fill:#ffffff;fill-opacity:1;" d="M 225.351562 306.484375 C 224.714844 304.597656 222.121094 302.0625 217.589844 302.800781 C 217.371094 302.847656 216.902344 302.972656 216.898438 302.976562 C 212.28125 304.378906 212.804688 309.054688 216.632812 311.042969 C 221.292969 313.46875 226.75 310.613281 225.351562 306.484375 "/><path style=" stroke:none;fill-rule:nonzero;fill:#ffffff;fill-opacity:1;" d="M 141.277344 72.183594 C 137.800781 72.625 134.378906 79.71875 136.191406 82.722656 C 137.707031 85.226562 141.960938 83.0625 143.363281 78.121094 C 144.066406 75.652344 144.089844 72.03125 141.277344 72.183594 "/><path style=" stroke:none;fill-rule:nonzero;fill:#ffffff;fill-opacity:1;" d="M 171.226562 110.882812 C 165.441406 112.394531 165.128906 120.074219 168.464844 122.949219 C 171.925781 125.933594 177.863281 122.949219 177.585938 117.027344 C 177.398438 112.992188 174.546875 110.238281 171.226562 110.882812 "/><path style=" stroke:none;fill-rule:nonzero;fill:#ffffff;fill-opacity:1;" d="M 208.160156 340.289062 C 210.335938 340.148438 210.765625 339.136719 209.207031 337.828125 C 207.574219 336.453125 204.269531 335.226562 201.574219 335.554688 C 201.160156 335.621094 200.464844 335.734375 200.078125 336.101562 C 198.46875 337.609375 204.132812 340.542969 208.160156 340.289062 "/><path style=" stroke:none;fill-rule:nonzero;fill:#ffffff;fill-opacity:1;" d="M 210.414062 345.101562 C 211.191406 344.867188 210.777344 344.300781 209.328125 343.632812 C 207.78125 342.917969 204.554688 341.910156 202 342.074219 C 201.609375 342.113281 201.109375 342.210938 200.949219 342.449219 C 200.191406 343.609375 208.0625 345.8125 210.414062 345.101562 "/><path style=" stroke:none;fill-rule:nonzero;fill:#ffffff;fill-opacity:1;" d="M 121.058594 57.785156 C 121.339844 59.042969 124.175781 57.164062 126.894531 53.917969 C 129.035156 51.367188 130.609375 48.574219 129.539062 48.480469 C 127.027344 48.703125 120.605469 55.746094 121.058594 57.785156 "/><g clip-rule="nonzero" clip-path="url(#00f4a6ad55)"><path style=" stroke:none;fill-rule:nonzero;fill:#ffffff;fill-opacity:1;" d="M 193.859375 346.527344 C 193.558594 346.527344 193.558594 346.527344 193.492188 346.589844 C 194.261719 347.074219 204.214844 348.398438 204.945312 348.109375 C 204.6875 348.042969 204.347656 347.992188 201.695312 347.589844 C 197.515625 346.953125 195.210938 346.597656 193.859375 346.527344 "/></g><path style=" stroke:none;fill-rule:nonzero;fill:#ffffff;fill-opacity:1;" d="M 138.769531 65.5 C 139.984375 62.789062 140.105469 59.863281 138.332031 60 C 135.195312 60.574219 131.273438 67.132812 132.507812 69.746094 C 133.507812 71.859375 136.960938 69.519531 138.769531 65.5 "/><path style=" stroke:none;fill-rule:nonzero;fill:#ffffff;fill-opacity:1;" d="M 106.292969 55.003906 C 106.140625 55.867188 108.46875 54.355469 111.710938 51.496094 C 111.765625 51.445312 117.121094 46.671875 116.734375 46.035156 C 115.296875 45.773438 106.613281 53.230469 106.292969 55.003906 "/><path style=" stroke:none;fill-rule:nonzero;fill:#ffffff;fill-opacity:1;" d="M 222.800781 205.785156 C 216.050781 207.816406 216.324219 215.621094 220.308594 218.824219 C 224.96875 222.570312 232.648438 219.132812 231.65625 212.125 C 231.015625 207.589844 227.042969 204.742188 222.800781 205.785156 "/><path style=" stroke:none;fill-rule:nonzero;fill:#ffffff;fill-opacity:1;" d="M 121.839844 47.65625 C 119.765625 47.613281 111.871094 55.117188 112.019531 56.988281 C 112.097656 57.960938 114.421875 56.734375 118.042969 53.054688 C 118.238281 52.855469 122.851562 48.15625 121.839844 47.65625 "/><path style=" stroke:none;fill-rule:nonzero;fill:#ffffff;fill-opacity:1;" d="M 231.433594 240.171875 C 225.367188 241.710938 224.648438 248.882812 228.941406 251.921875 C 233.738281 255.316406 240.683594 251.273438 239.863281 245.558594 C 239.480469 242.898438 236.855469 239.082031 231.433594 240.171875 "/><path style=" stroke:none;fill-rule:nonzero;fill:#ffffff;fill-opacity:1;" d="M 89.582031 62.417969 C 89.597656 62.390625 89.597656 62.34375 89.597656 62.3125 C 88.625 62.746094 80.769531 72.035156 80.753906 72.773438 C 80.976562 72.636719 81.5625 72.015625 84.132812 69.015625 C 88.347656 64.109375 89.246094 62.976562 89.582031 62.417969 "/><path style=" stroke:none;fill-rule:nonzero;fill:#ffffff;fill-opacity:1;" d="M 214.039062 170.738281 C 207.238281 172.808594 207.804688 180.917969 212.1875 183.832031 C 217.257812 187.203125 223.574219 182.910156 222.585938 176.765625 C 221.90625 172.535156 217.992188 169.773438 214.039062 170.738281 "/><path style=" stroke:none;fill-rule:nonzero;fill:#ffffff;fill-opacity:1;" d="M 187.296875 124.023438 C 181.613281 125.652344 181.128906 133.175781 185.277344 136.183594 C 189.613281 139.332031 195.289062 135.320312 194.472656 129.679688 C 194.101562 127.097656 191.824219 123.273438 187.296875 124.023438 "/><path style=" stroke:none;fill-rule:nonzero;fill:#ffffff;fill-opacity:1;" d="M 235.238281 291.878906 C 234.714844 289.3125 231.867188 287 227.609375 287.777344 C 222.371094 288.996094 221.816406 294.191406 225.410156 296.671875 C 229.75 299.664062 236.183594 296.53125 235.238281 291.878906 "/><path style=" stroke:none;fill-rule:nonzero;fill:#ffffff;fill-opacity:1;" d="M 95.296875 58.820312 C 95.347656 58.769531 100.53125 53.777344 100.875 52.902344 C 100.875 52.902344 100.875 52.902344 100.859375 52.855469 C 99.742188 52.8125 90.910156 61.421875 91.117188 62.347656 C 91.511719 62.386719 93.90625 60.152344 95.296875 58.820312 "/><path style=" stroke:none;fill-rule:nonzero;fill:#ffffff;fill-opacity:1;" d="M 204.230469 149.023438 C 209.113281 152.21875 214.183594 147.625 213.269531 142.535156 C 212.789062 139.882812 210.054688 136.34375 205.699219 137.167969 C 200.964844 138.371094 199.277344 145.777344 204.230469 149.023438 "/><path style=" stroke:none;fill-rule:nonzero;fill:#ffffff;fill-opacity:1;" d="M 246.554688 275.179688 C 246.203125 272.503906 243.304688 270.125 239.238281 270.933594 C 234.847656 272.042969 232.601562 277.355469 236.542969 280.300781 C 241.078125 283.695312 247.160156 279.753906 246.554688 275.179688 "/><path style=" stroke:none;fill-rule:nonzero;fill:#ffffff;fill-opacity:1;" d="M 205.683594 346.378906 C 205.253906 346.417969 205.132812 346.457031 205.09375 346.566406 C 205.496094 347.367188 213.527344 348.242188 214.558594 347.851562 C 214.5625 347.832031 214.566406 347.800781 214.570312 347.78125 C 214.484375 347.722656 214.265625 347.558594 212.300781 347.167969 C 211.570312 347.023438 207.816406 346.304688 205.683594 346.378906 "/><path style=" stroke:none;fill-rule:nonzero;fill:#ffffff;fill-opacity:1;" d="M 132.46875 56.996094 C 132.746094 58.625 135.488281 57.171875 137.90625 53.453125 C 139.445312 51.085938 140.3125 48.558594 139.027344 48.601562 C 136.699219 48.953125 132.101562 54.839844 132.46875 56.996094 "/><path style=" stroke:none;fill-rule:nonzero;fill:#ffffff;fill-opacity:1;" d="M 108.523438 48.964844 C 110.519531 47.351562 113.894531 44.550781 114.046875 43.925781 C 113.433594 43.375 104.253906 50.785156 104.125 51.9375 C 104.203125 52.015625 104.445312 52.257812 108.523438 48.964844 "/><path style=" stroke:none;fill-rule:nonzero;fill:#ffffff;fill-opacity:1;" d="M 166.578125 91.335938 C 169.058594 93.71875 173.417969 91.351562 173.289062 86.636719 C 173.238281 84.796875 172.265625 81.441406 168.941406 81.917969 C 165.128906 82.722656 164.089844 88.945312 166.578125 91.335938 "/><path style=" stroke:none;fill-rule:nonzero;fill:#ffffff;fill-opacity:1;" d="M 227.570312 323.183594 C 227.324219 323.242188 226.992188 323.320312 226.753906 323.40625 C 223.773438 324.476562 224.4375 327.226562 227.089844 328.421875 C 230.128906 329.789062 234.441406 328.355469 233.453125 325.636719 C 232.980469 324.339844 231.023438 322.617188 227.570312 323.183594 "/><path style=" stroke:none;fill-rule:nonzero;fill:#ffffff;fill-opacity:1;" d="M 162.160156 74.867188 C 162.429688 72.257812 161.355469 69.789062 159.085938 70.164062 C 155.578125 71.015625 154.089844 76.847656 156.082031 79.125 C 157.949219 81.261719 161.710938 79.191406 162.160156 74.867188 "/><path style=" stroke:none;fill-rule:nonzero;fill:#ffffff;fill-opacity:1;" d="M 223.621094 337.171875 C 226.457031 337.695312 228.96875 336.636719 227.753906 334.796875 C 226.765625 333.300781 224.1875 332.441406 221.882812 332.84375 C 221.511719 332.921875 220.890625 333.054688 220.410156 333.394531 C 218.816406 334.527344 220.585938 336.609375 223.621094 337.171875 "/><path style=" stroke:none;fill-rule:nonzero;fill:#ffffff;fill-opacity:1;" d="M 241.5625 313.992188 C 241.207031 312.535156 239.355469 310.617188 235.710938 311.300781 C 231.394531 312.449219 231.617188 316.003906 234.195312 317.503906 C 237.597656 319.476562 242.347656 317.214844 241.5625 313.992188 "/><path style=" stroke:none;fill-rule:nonzero;fill:#ffffff;fill-opacity:1;" d="M 235.351562 184.597656 C 229.445312 186.242188 229.722656 193.535156 233.421875 196.285156 C 237.609375 199.402344 244.328125 195.894531 243.148438 189.757812 C 242.707031 187.46875 240.511719 183.445312 235.351562 184.597656 "/><path style=" stroke:none;fill-rule:nonzero;fill:#ffffff;fill-opacity:1;" d="M 136.789062 37.726562 C 135.003906 37.824219 128.070312 43.710938 128.0625 45.136719 C 128.058594 45.851562 129.933594 44.910156 133.082031 42.09375 C 133.128906 42.054688 137.613281 38.027344 136.789062 37.726562 "/><path style=" stroke:none;fill-rule:nonzero;fill:#ffffff;fill-opacity:1;" d="M 122.121094 44.050781 C 122.0625 44.648438 124.066406 43.480469 127.105469 41.144531 C 127.59375 40.769531 131.855469 37.476562 131.914062 36.816406 C 131.898438 36.804688 131.878906 36.789062 131.867188 36.773438 C 130.523438 36.6875 122.234375 42.878906 122.121094 44.050781 "/><path style=" stroke:none;fill-rule:nonzero;fill:#ffffff;fill-opacity:1;" d="M 242.039062 231.039062 C 246.074219 233.992188 252.765625 230.730469 251.929688 224.851562 C 251.605469 222.574219 249.597656 218.582031 244.304688 219.769531 C 237.871094 221.867188 238.851562 228.699219 242.039062 231.039062 "/><path style=" stroke:none;fill-rule:nonzero;fill:#ffffff;fill-opacity:1;" d="M 180.300781 103.585938 C 183.554688 106.265625 188 103.066406 187.398438 98.476562 C 187.125 96.40625 185.429688 93.328125 182.039062 93.894531 C 178.195312 94.785156 177.089844 100.945312 180.300781 103.585938 "/><path style=" stroke:none;fill-rule:nonzero;fill:#ffffff;fill-opacity:1;" d="M 258.710938 256.511719 C 258.300781 253.566406 255.066406 251.648438 251.917969 252.488281 C 247.25 254.003906 245.746094 259.339844 249.238281 262.003906 C 253.503906 265.257812 259.34375 261.042969 258.710938 256.511719 "/><path style=" stroke:none;fill-rule:nonzero;fill:#ffffff;fill-opacity:1;" d="M 224.195312 343.167969 C 225.546875 342.9375 225.730469 342.234375 224.640625 341.453125 C 223.746094 340.816406 221.433594 339.910156 219.035156 340.203125 C 218.253906 340.324219 217.925781 340.5625 217.785156 340.742188 C 216.847656 341.953125 221.339844 343.648438 224.195312 343.167969 "/><path style=" stroke:none;fill-rule:nonzero;fill:#ffffff;fill-opacity:1;" d="M 148.980469 66.941406 C 150.207031 69.058594 153.394531 66.96875 154.390625 63.390625 C 155.054688 61.007812 154.539062 58.523438 152.738281 58.765625 C 150.003906 59.398438 147.617188 64.59375 148.980469 66.941406 "/><path style=" stroke:none;fill-rule:nonzero;fill:#ffffff;fill-opacity:1;" d="M 245.96875 297.28125 C 242.371094 298.351562 240.964844 301.898438 243.328125 303.933594 C 246.65625 306.804688 251.980469 303.984375 251.734375 300.453125 C 251.578125 298.183594 248.722656 296.613281 245.96875 297.28125 "/><path style=" stroke:none;fill-rule:nonzero;fill:#ffffff;fill-opacity:1;" d="M 200.59375 116.53125 C 200.597656 116.53125 200.597656 116.53125 200.597656 116.53125 C 200.601562 116.53125 200.601562 116.53125 200.601562 116.527344 C 200.601562 116.53125 200.601562 116.527344 200.605469 116.527344 C 200.605469 116.527344 200.605469 116.527344 200.609375 116.527344 C 203.671875 115.535156 204.363281 112.445312 204.078125 110.613281 C 203.605469 107.589844 200.644531 105.339844 197.980469 105.980469 C 197.4375 106.152344 196.316406 106.511719 195.386719 107.964844 C 192.792969 112.011719 196.054688 117.375 200.59375 116.53125 "/><path style=" stroke:none;fill-rule:nonzero;fill:#ffffff;fill-opacity:1;" d="M 224.269531 161.09375 C 228.980469 164.644531 234.210938 160.332031 233.28125 155.296875 C 232.726562 152.292969 229.75 149.539062 225.90625 150.324219 C 221.25 151.863281 220.304688 158.105469 224.269531 161.09375 "/><path style=" stroke:none;fill-rule:nonzero;fill:#ffffff;fill-opacity:1;" d="M 118.964844 42.109375 C 119.390625 42.242188 122.335938 40.277344 123.582031 39.425781 C 123.632812 39.390625 128.789062 35.851562 128.933594 35.300781 C 127.933594 35.058594 118.902344 41.230469 118.964844 42.109375 "/><path style=" stroke:none;fill-rule:nonzero;fill:#ffffff;fill-opacity:1;" d="M 150.09375 47.933594 C 148.035156 48.386719 144.878906 53.164062 145.691406 55.292969 C 146.40625 57.183594 149.230469 54.742188 150.464844 51.777344 C 151.261719 49.867188 151.269531 47.816406 150.09375 47.933594 "/><path style=" stroke:none;fill-rule:nonzero;fill:#ffffff;fill-opacity:1;" d="M 143.40625 38.046875 C 141.976562 38.082031 136.253906 43.472656 136.285156 45.21875 C 136.308594 46.332031 138.867188 44.449219 140.972656 42.148438 C 142.21875 40.78125 144.214844 38.179688 143.40625 38.046875 "/><path style=" stroke:none;fill-rule:nonzero;fill:#ffffff;fill-opacity:1;" d="M 224.648438 345.890625 C 223.246094 345.433594 220.636719 345.046875 219.246094 345.214844 C 218.992188 345.257812 218.566406 345.324219 218.5 345.53125 C 218.203125 346.472656 224.429688 347.195312 225.570312 346.675781 C 226.027344 346.464844 225.394531 346.132812 224.648438 345.890625 "/><path style=" stroke:none;fill-rule:nonzero;fill:#ffffff;fill-opacity:1;" d="M 102.476562 49.242188 C 102.488281 49.222656 102.503906 49.191406 102.515625 49.171875 C 101.917969 49.433594 94.566406 56.167969 94.183594 56.996094 C 94.320312 56.898438 94.320312 56.898438 97.355469 54.074219 C 101.242188 50.457031 102.164062 49.597656 102.476562 49.242188 "/><path style=" stroke:none;fill-rule:nonzero;fill:#ffffff;fill-opacity:1;" d="M 108.570312 45.558594 C 113.351562 41.914062 113.710938 41.492188 113.972656 41.183594 C 113.460938 40.910156 105.246094 47.195312 105.179688 47.910156 C 105.261719 47.917969 105.449219 47.933594 108.570312 45.558594 "/><path style=" stroke:none;fill-rule:nonzero;fill:#ffffff;fill-opacity:1;" d="M 138.714844 33.808594 C 138.914062 34.058594 140.179688 33.367188 143.21875 31.335938 C 143.859375 30.902344 147.078125 28.738281 147.226562 28.332031 C 147.21875 28.320312 147.207031 28.3125 147.195312 28.304688 C 146.59375 28.226562 138.832031 32.773438 138.714844 33.808594 "/><path style=" stroke:none;fill-rule:nonzero;fill:#ffffff;fill-opacity:1;" d="M 263.171875 284.851562 C 263.175781 284.800781 262.933594 280.1875 257.832031 281.5625 C 251.953125 283.359375 254.496094 288.0625 255.054688 288.628906 C 256.953125 290.574219 262.910156 289.539062 263.171875 284.851562 "/><path style=" stroke:none;fill-rule:nonzero;fill:#ffffff;fill-opacity:1;" d="M 151.074219 37.984375 C 149.511719 38.292969 145.980469 42.695312 146.167969 44.09375 C 146.3125 45.15625 148.328125 44.003906 150.019531 41.515625 C 150.425781 40.914062 152.402344 37.914062 151.074219 37.984375 "/><g clip-rule="nonzero" clip-path="url(#96fa27b22b)"><path style=" stroke:none;fill-rule:nonzero;fill:#ffffff;fill-opacity:1;" d="M 227.519531 347.929688 C 224.902344 347.816406 223.726562 347.800781 222.867188 347.875 C 222.425781 347.917969 222.40625 347.945312 222.382812 347.996094 C 222.964844 348.332031 228.449219 348.246094 229.246094 348.050781 C 229.195312 348.015625 229.175781 348 227.519531 347.929688 "/></g><path style=" stroke:none;fill-rule:nonzero;fill:#ffffff;fill-opacity:1;" d="M 262.78125 241.828125 C 263.566406 242.417969 265.726562 243.570312 268.796875 241.546875 C 269.800781 240.886719 271.429688 239.335938 271.011719 236.410156 C 270.464844 232.574219 267.378906 232.054688 264.902344 232.773438 C 259.910156 234.527344 260.425781 240.0625 262.78125 241.828125 "/><path style=" stroke:none;fill-rule:nonzero;fill:#ffffff;fill-opacity:1;" d="M 255.050781 208.507812 C 257.496094 210.535156 264.324219 209.378906 263.640625 202.8125 C 263.632812 202.753906 262.757812 196.859375 257.023438 198.324219 C 250.898438 200.164062 253 206.808594 255.050781 208.507812 "/><path style=" stroke:none;fill-rule:nonzero;fill:#ffffff;fill-opacity:1;" d="M 246.007812 173.304688 C 246.480469 173.625 248.972656 175.128906 251.816406 173.160156 C 253.0625 172.296875 254.417969 170.683594 253.816406 167.894531 C 253.035156 164.273438 250.441406 162.628906 247.046875 163.601562 C 242.066406 165.390625 243.191406 171.382812 246.007812 173.304688 "/><path style=" stroke:none;fill-rule:nonzero;fill:#ffffff;fill-opacity:1;" d="M 215.679688 127.570312 C 218.515625 129.226562 223.59375 127.691406 222.496094 122.597656 C 221.929688 119.957031 219.691406 117.648438 216.511719 118.332031 C 211.507812 119.734375 212.8125 125.898438 215.679688 127.570312 "/><path style=" stroke:none;fill-rule:nonzero;fill:#ffffff;fill-opacity:1;" d="M 127.585938 33.570312 C 127.585938 33.558594 127.566406 33.542969 127.558594 33.53125 C 126.738281 33.558594 119.675781 37.867188 118.695312 39.148438 C 119.121094 39.089844 120.132812 38.519531 122.707031 36.890625 C 126.359375 34.582031 127.453125 33.832031 127.585938 33.570312 "/><path style=" stroke:none;fill-rule:nonzero;fill:#ffffff;fill-opacity:1;" d="M 237.078125 337.378906 C 236.800781 337.445312 236.34375 337.550781 236.007812 337.785156 C 235.183594 338.367188 235.464844 339.574219 237.554688 340.050781 C 239.335938 340.460938 241.777344 339.800781 240.953125 338.460938 C 240.445312 337.640625 239.050781 336.984375 237.078125 337.378906 "/><path style=" stroke:none;fill-rule:nonzero;fill:#ffffff;fill-opacity:1;" d="M 144.003906 34.398438 C 144.671875 34.15625 145.585938 33.695312 147.738281 31.972656 C 149.5 30.566406 151.511719 28.867188 151.105469 28.769531 C 151.101562 28.769531 151.097656 28.769531 151.09375 28.769531 C 150.214844 28.816406 143.257812 33.675781 144.003906 34.398438 "/><path style=" stroke:none;fill-rule:nonzero;fill:#ffffff;fill-opacity:1;" d="M 135.394531 32.738281 C 136.136719 32.535156 137.328125 31.917969 139.949219 30.382812 C 144.371094 27.792969 144.421875 27.644531 144.472656 27.503906 L 144.472656 27.5 C 143.820312 27.410156 135.910156 31.710938 135.394531 32.738281 "/><path style=" stroke:none;fill-rule:nonzero;fill:#ffffff;fill-opacity:1;" d="M 243.046875 329.117188 C 242.910156 329.148438 242.773438 329.183594 242.640625 329.226562 C 240.875 329.773438 239.953125 331.578125 242.195312 332.675781 C 244.171875 333.644531 247.511719 332.476562 246.90625 330.585938 C 246.792969 330.238281 246.078125 328.519531 243.046875 329.117188 "/><path style=" stroke:none;fill-rule:nonzero;fill:#ffffff;fill-opacity:1;" d="M 166.628906 63.097656 C 167.609375 64.359375 170.546875 63.964844 170.886719 59.980469 C 170.890625 59.945312 170.871094 56.425781 168.535156 56.757812 C 165.871094 57.328125 165.515625 61.660156 166.628906 63.097656 "/><path style=" stroke:none;fill-rule:nonzero;fill:#ffffff;fill-opacity:1;" d="M 176.957031 74.097656 C 176.96875 74.105469 178.46875 75.347656 179.871094 74.359375 C 180.378906 74.003906 181.71875 73.058594 181.574219 70.84375 C 181.5625 70.675781 181.261719 66.738281 178.210938 67.261719 C 175.222656 67.960938 175.152344 72.570312 176.957031 74.097656 "/><path style=" stroke:none;fill-rule:nonzero;fill:#ffffff;fill-opacity:1;" d="M 251.402344 318.605469 C 248.429688 319.441406 248.300781 321.769531 249.792969 322.84375 C 251.460938 324.054688 255.570312 322.957031 255.230469 320.335938 C 255.023438 318.738281 253.554688 318.074219 251.402344 318.605469 "/><path style=" stroke:none;fill-rule:nonzero;fill:#ffffff;fill-opacity:1;" d="M 235.917969 139.121094 C 238.207031 140.578125 243.289062 139.609375 242.410156 134.410156 C 242.265625 133.558594 240.652344 129.476562 236.464844 130.6875 C 231.636719 132.34375 233.917969 137.847656 235.917969 139.121094 "/><path style=" stroke:none;fill-rule:nonzero;fill:#ffffff;fill-opacity:1;" d="M 270.78125 263.925781 C 265.894531 265.570312 267.144531 269.789062 267.917969 270.773438 C 269.738281 273.089844 275.351562 271.664062 275.644531 267.03125 C 275.691406 266.316406 274.984375 262.699219 270.78125 263.925781 "/><path style=" stroke:none;fill-rule:nonzero;fill:#ffffff;fill-opacity:1;" d="M 112.050781 41.195312 C 115.933594 38.34375 115.933594 38.34375 116.171875 38.132812 C 116.195312 38.109375 116.226562 38.078125 116.242188 38.050781 C 115.621094 38.3125 110.03125 42.476562 109.597656 43 C 110.464844 42.46875 111.234375 41.800781 112.050781 41.195312 "/><g clip-rule="nonzero" clip-path="url(#57ab0630e1)"><path style=" stroke:none;fill-rule:nonzero;fill:#ffffff;fill-opacity:1;" d="M 142.726562 26.507812 C 142.429688 26.34375 135.324219 29.816406 134.488281 30.742188 C 134.714844 30.808594 135.804688 30.273438 138.320312 28.964844 C 141.84375 27.132812 142.625 26.695312 142.726562 26.507812 "/></g><path style=" stroke:none;fill-rule:nonzero;fill:#ffffff;fill-opacity:1;" d="M 236.941406 344.742188 C 238.117188 344.578125 238.351562 344.273438 237.675781 343.785156 C 237.664062 343.773438 236.1875 342.855469 234.074219 343.230469 C 233.820312 343.277344 233.296875 343.386719 233.128906 343.609375 C 232.726562 344.152344 234.875 345.035156 236.941406 344.742188 "/><path style=" stroke:none;fill-rule:nonzero;fill:#ffffff;fill-opacity:1;" d="M 163.59375 49.710938 C 163.847656 48.292969 163.847656 46.640625 162.398438 46.8125 C 160.191406 47.234375 159.316406 51.441406 160.117188 52.480469 C 160.871094 53.453125 163.042969 52.75 163.59375 49.710938 "/><path style=" stroke:none;fill-rule:nonzero;fill:#ffffff;fill-opacity:1;" d="M 265.589844 307.820312 C 265.550781 306.769531 265.042969 305.105469 262.03125 305.835938 C 257.632812 307.1875 259.433594 310.242188 259.835938 310.605469 C 261.304688 311.929688 265.6875 310.707031 265.589844 307.820312 "/><path style=" stroke:none;fill-rule:nonzero;fill:#ffffff;fill-opacity:1;" d="M 153.875 31.582031 C 153.960938 31.496094 154.074219 31.378906 154.160156 31.289062 C 156.183594 29.191406 156.0625 28.957031 155.796875 28.964844 C 154.75 29.125 150.722656 32.855469 150.660156 33.710938 C 150.632812 34.097656 151.40625 34.097656 153.875 31.582031 "/><path style=" stroke:none;fill-rule:nonzero;fill:#ffffff;fill-opacity:1;" d="M 190.507812 85.167969 C 192.40625 86.425781 196.015625 85.234375 195.234375 81.449219 C 194.824219 79.476562 193.539062 77.578125 191.15625 78.160156 C 187.527344 79.242188 188.78125 84.027344 190.507812 85.167969 "/><path style=" stroke:none;fill-rule:nonzero;fill:#ffffff;fill-opacity:1;" d="M 206.800781 96.082031 C 209.074219 97.414062 212.53125 95.761719 211.488281 92.265625 C 211.066406 90.847656 209.929688 88.566406 207.0625 89.21875 C 203.359375 90.25 204.941406 94.988281 206.800781 96.082031 "/><path style=" stroke:none;fill-rule:nonzero;fill:#ffffff;fill-opacity:1;" d="M 267.527344 184.621094 C 269.570312 186.488281 274.785156 185.871094 274.335938 180.003906 C 274.207031 178.347656 272.203125 177.003906 272.179688 176.988281 C 270.898438 176.1875 269.683594 176.519531 269.03125 176.699219 C 264.535156 178.175781 265.808594 183.046875 267.527344 184.621094 "/><path style=" stroke:none;fill-rule:nonzero;fill:#ffffff;fill-opacity:1;" d="M 234.136719 346.566406 C 233.957031 346.59375 233.582031 346.660156 233.59375 346.753906 C 233.605469 346.890625 234.460938 347.039062 235.824219 347.050781 C 236.492188 347.054688 238.058594 346.960938 238.132812 346.789062 C 238.089844 346.746094 238.015625 346.710938 237.492188 346.625 C 237.472656 346.621094 235.585938 346.347656 234.136719 346.566406 "/><path style=" stroke:none;fill-rule:nonzero;fill:#ffffff;fill-opacity:1;" d="M 157.21875 42.097656 C 157.308594 42.355469 157.613281 42.890625 158.433594 42.28125 C 158.890625 41.945312 159.558594 41.335938 160.117188 39.949219 C 160.519531 38.957031 161.035156 37.304688 160.007812 37.382812 C 158.636719 37.601562 156.832031 41 157.21875 42.097656 "/><path style=" stroke:none;fill-rule:nonzero;fill:#ffffff;fill-opacity:1;" d="M 276.40625 219.679688 C 277.53125 220.464844 279.769531 220.503906 280.550781 219.957031 C 281.285156 219.445312 283.519531 217.886719 283.0625 215.039062 C 282.695312 212.746094 281.003906 210.855469 278.054688 211.800781 C 273.394531 213.515625 274.734375 218.511719 276.40625 219.679688 "/><path style=" stroke:none;fill-rule:nonzero;fill:#ffffff;fill-opacity:1;" d="M 124.015625 33.949219 C 124.054688 33.929688 127.726562 31.785156 128.136719 31.398438 C 128.136719 31.386719 128.136719 31.371094 128.136719 31.359375 C 127.535156 31.464844 121.976562 34.679688 121.242188 35.449219 C 121.242188 35.460938 121.246094 35.476562 121.25 35.484375 C 121.480469 35.421875 122.152344 35.035156 124.015625 33.949219 "/><path style=" stroke:none;fill-rule:nonzero;fill:#ffffff;fill-opacity:1;" d="M 284.34375 244.875 C 280.875 246.015625 280.554688 249.597656 282.191406 251.238281 C 284.015625 253.066406 288.351562 251.113281 288.292969 247.753906 C 288.28125 247.089844 288.035156 243.824219 284.34375 244.875 "/><path style=" stroke:none;fill-rule:nonzero;fill:#ffffff;fill-opacity:1;" d="M 277.394531 293.074219 C 277.402344 292.210938 277.109375 290.289062 274.226562 291.046875 C 270.863281 292.0625 270.949219 294.921875 271.886719 295.910156 C 273.316406 297.414062 277.371094 295.765625 277.394531 293.074219 "/><path style=" stroke:none;fill-rule:nonzero;fill:#ffffff;fill-opacity:1;" d="M 257.472656 150.15625 C 259.835938 151.660156 263.921875 149.816406 262.894531 146.101562 C 262.628906 145.140625 261.488281 142.085938 257.988281 143.0625 C 254.042969 144.371094 255.519531 148.917969 257.472656 150.15625 "/><path style=" stroke:none;fill-rule:nonzero;fill:#ffffff;fill-opacity:1;" d="M 225.261719 106.699219 C 226.964844 107.777344 230.671875 107.097656 229.773438 103.332031 C 229.765625 103.292969 228.714844 99.539062 225.371094 100.519531 C 221.695312 101.777344 223.949219 105.863281 225.261719 106.699219 "/><path style=" stroke:none;fill-rule:nonzero;fill:#ffffff;fill-opacity:1;" d="M 160.488281 30.949219 C 160.648438 30.734375 162.015625 28.847656 161.347656 28.847656 C 160.363281 29.050781 158.289062 31.882812 158.324219 32.511719 C 158.324219 32.523438 158.617188 33.492188 160.488281 30.949219 "/><path style=" stroke:none;fill-rule:nonzero;fill:#ffffff;fill-opacity:1;" d="M 249.367188 340.523438 C 249.261719 340.546875 249.15625 340.574219 249.054688 340.609375 C 248.117188 340.925781 248.351562 341.414062 248.804688 341.644531 C 249.550781 342.015625 251.382812 341.710938 251.121094 340.914062 C 251.121094 340.90625 250.730469 340.246094 249.367188 340.523438 "/><path style=" stroke:none;fill-rule:nonzero;fill:#ffffff;fill-opacity:1;" d="M 287.328125 274.550781 C 285.535156 275.207031 284.277344 277.429688 285.4375 278.804688 C 286.621094 280.199219 289.8125 278.898438 290.046875 276.386719 C 290.222656 274.46875 288.808594 274.082031 287.328125 274.550781 "/><path style=" stroke:none;fill-rule:nonzero;fill:#ffffff;fill-opacity:1;" d="M 245.789062 117.148438 C 247.953125 118.222656 250.375 116.519531 249.363281 113.894531 C 248.707031 112.1875 247.191406 111.378906 245.59375 111.890625 C 242.6875 112.984375 244.214844 116.371094 245.789062 117.148438 "/><path style=" stroke:none;fill-rule:nonzero;fill:#ffffff;fill-opacity:1;" d="M 255.546875 333.855469 C 254.164062 334.203125 253.941406 335.074219 254.398438 335.523438 C 255.191406 336.296875 257.386719 335.613281 257.335938 334.609375 C 257.3125 334.183594 256.910156 333.554688 255.546875 333.855469 "/><path style=" stroke:none;fill-rule:nonzero;fill:#ffffff;fill-opacity:1;" d="M 289.625 195.769531 C 290.976562 196.78125 294.175781 195.625 293.707031 192.695312 C 293.472656 191.230469 292.714844 189.636719 290.425781 190.34375 C 287.445312 191.40625 288.347656 194.816406 289.625 195.769531 "/><path style=" stroke:none;fill-rule:nonzero;fill:#ffffff;fill-opacity:1;" d="M 297.722656 224.738281 C 294.859375 225.757812 295.519531 228.886719 296.496094 229.589844 C 296.503906 229.601562 297.746094 230.433594 299.277344 229.304688 C 299.617188 229.050781 300.660156 228.285156 300.496094 226.632812 C 300.398438 225.632812 299.910156 224.054688 297.722656 224.738281 "/><path style=" stroke:none;fill-rule:nonzero;fill:#ffffff;fill-opacity:1;" d="M 264.136719 324.847656 C 262.003906 325.484375 262.835938 326.921875 262.847656 326.9375 C 263.394531 327.625 265.75 327.097656 265.878906 325.703125 C 265.914062 325.296875 265.820312 324.394531 264.136719 324.847656 "/><path style=" stroke:none;fill-rule:nonzero;fill:#ffffff;fill-opacity:1;" d="M 198.371094 67.699219 C 199.316406 68.238281 201.289062 67.695312 200.628906 65.640625 C 200.421875 64.984375 199.769531 63.5 198.253906 63.902344 C 196.199219 64.570312 197.460938 67.183594 198.371094 67.699219 "/><path style=" stroke:none;fill-rule:nonzero;fill:#ffffff;fill-opacity:1;" d="M 247.660156 344.730469 C 247.480469 344.644531 246.96875 344.464844 246.070312 344.648438 C 245.925781 344.675781 245.625 344.746094 245.570312 344.84375 C 245.433594 345.101562 246.808594 345.253906 247.585938 344.988281 C 247.828125 344.90625 247.851562 344.820312 247.660156 344.730469 "/><path style=" stroke:none;fill-rule:nonzero;fill:#ffffff;fill-opacity:1;" d="M 185.050781 57.933594 C 185.730469 58.507812 187.597656 58.445312 187.332031 56.195312 C 187.332031 56.171875 186.960938 53.96875 185.3125 54.363281 C 183.695312 54.851562 184.269531 57.269531 185.050781 57.933594 "/><path style=" stroke:none;fill-rule:nonzero;fill:#ffffff;fill-opacity:1;" d="M 170.480469 38.109375 C 170.5625 37.589844 170.667969 36.390625 169.867188 36.5 C 168.832031 36.726562 168.585938 38.839844 168.988281 39.3125 C 169.359375 39.746094 170.265625 39.472656 170.480469 38.109375 "/><path style=" stroke:none;fill-rule:nonzero;fill:#ffffff;fill-opacity:1;" d="M 175.261719 48.496094 C 175.464844 48.671875 176.011719 49.011719 176.644531 48.433594 C 176.914062 48.191406 177.222656 47.707031 177.148438 46.789062 C 177.113281 46.34375 176.914062 44.914062 175.792969 45.15625 C 174.339844 45.570312 174.625 47.960938 175.261719 48.496094 "/><path style=" stroke:none;fill-rule:nonzero;fill:#ffffff;fill-opacity:1;" d="M 279.609375 160.808594 C 280.777344 161.5 283.921875 160.960938 283.222656 157.738281 C 283.21875 157.710938 282.503906 154.96875 279.941406 155.753906 C 277.027344 156.792969 278.414062 160.097656 279.609375 160.808594 "/><path style=" stroke:none;fill-rule:nonzero;fill:#ffffff;fill-opacity:1;" d="M 214.601562 77.332031 C 215.71875 77.75 216.015625 77.421875 216.390625 77.003906 C 216.578125 76.796875 216.96875 76.203125 216.539062 75.179688 C 216.070312 74.054688 215.046875 73.46875 214.046875 73.757812 C 214 73.773438 213.9375 73.792969 213.890625 73.8125 C 212.5625 74.375 213.042969 76.742188 214.601562 77.332031 "/><path style=" stroke:none;fill-rule:nonzero;fill:#ffffff;fill-opacity:1;" d="M 275.046875 313.375 C 273.554688 313.828125 273.09375 315.058594 273.511719 315.667969 C 273.910156 316.25 275.089844 315.957031 275.101562 315.949219 C 275.113281 315.945312 276.355469 315.289062 276.53125 314.445312 C 276.617188 314.046875 276.523438 312.992188 275.046875 313.375 "/><path style=" stroke:none;fill-rule:nonzero;fill:#ffffff;fill-opacity:1;" d="M 287.417969 299.886719 C 285.902344 300.421875 286.007812 301.710938 286.207031 301.984375 C 286.632812 302.550781 288.34375 302.023438 288.605469 300.8125 C 288.652344 300.578125 288.832031 299.433594 287.417969 299.886719 "/><path style=" stroke:none;fill-rule:nonzero;fill:#ffffff;fill-opacity:1;" d="M 301.148438 256.476562 C 299.609375 257.027344 299.289062 258.867188 299.976562 259.628906 C 300.738281 260.46875 302.921875 259.390625 302.988281 257.785156 C 303.019531 257.066406 302.820312 255.9375 301.148438 256.476562 "/><path style=" stroke:none;fill-rule:nonzero;fill:#ffffff;fill-opacity:1;" d="M 267.332031 127.148438 C 268.433594 127.703125 270.433594 126.828125 269.707031 124.964844 C 269.425781 124.242188 268.738281 123.097656 267.277344 123.546875 C 265.128906 124.316406 266.386719 126.675781 267.332031 127.148438 "/><path style=" stroke:none;fill-rule:nonzero;fill:#ffffff;fill-opacity:1;" d="M 232.960938 86.65625 C 233.042969 86.6875 233.746094 86.945312 234.21875 86.492188 C 234.605469 86.121094 234.699219 85.679688 234.496094 85.183594 C 234.488281 85.167969 233.863281 83.683594 232.582031 84.027344 C 232.519531 84.046875 232.457031 84.070312 232.398438 84.101562 C 231.199219 84.660156 232.066406 86.300781 232.960938 86.65625 "/></g></svg>